<svg width="104" height="24" viewBox="0 0 104 24" fill="none" xmlns="http://www.w3.org/2000/svg">
<g clip-path="url(#clip0_163_664)">
<path d="M4.04474 8.2395C5.57737 4.04221 9.60666 1.04674 14.3338 1.04674C19.0609 1.04674 23.0902 4.04221 24.6228 8.2395C24.9717 8.18006 25.3181 8.11544 25.6644 8.05083C24.031 3.36507 19.5778 0 14.3338 0C9.08976 0 4.6366 3.36507 3.00317 8.05083C3.3495 8.11544 3.69583 8.18006 4.04474 8.2395Z" fill="#002B76"/>
<path d="M24.5427 15.9647C22.9532 20.0535 18.9834 22.9533 14.3338 22.9533C9.6842 22.9533 5.71435 20.0535 4.12486 15.9647C3.55885 15.6391 3.05486 15.2152 2.64392 14.7061C3.87158 20.0302 8.63746 24 14.3338 24C20.0301 24 24.796 20.0302 26.0236 14.7061C25.6127 15.2152 25.1113 15.6417 24.5427 15.9647Z" fill="#002B76"/>
<path d="M11.1755 7.30138L11.2091 7.8157C10.961 7.84413 10.5268 7.85706 9.90648 7.85706C9.72556 7.85706 9.58082 7.80537 9.47227 7.70198C9.36372 7.5986 9.30945 7.46162 9.30945 7.29363V5.76875C9.30945 5.59817 9.36372 5.46119 9.47486 5.36039C9.58599 5.25701 9.72814 5.20532 9.90648 5.20532C10.5268 5.20532 10.961 5.21824 11.2091 5.24667L11.1755 5.761H10.1882C10.0796 5.761 10.0254 5.81527 10.0254 5.92382V6.24431H11.0359V6.73537H10.0254V7.13597C10.0254 7.24452 10.0796 7.2988 10.1882 7.2988H11.1755V7.30138Z" fill="#002B76"/>
<path d="M12.3669 5.21558V7.11004C12.3669 7.21859 12.4264 7.27287 12.5453 7.27287H13.4369L13.4705 7.81045C13.2224 7.84146 12.8192 7.85697 12.2635 7.85697C12.0671 7.85697 11.9172 7.80528 11.8112 7.69932C11.7053 7.59335 11.651 7.45378 11.651 7.27804V5.21816H12.3669V5.21558Z" fill="#002B76"/>
<path d="M14.5457 7.84405H13.8375V5.21558H14.5457V7.84405Z" fill="#002B76"/>
<path d="M17.1561 5.76867H16.3988V7.84405H15.6829V5.76867H14.9282V5.21558H17.1561V5.76867Z" fill="#002B76"/>
<path d="M19.3814 7.30138L19.415 7.8157C19.1669 7.84413 18.7327 7.85706 18.1124 7.85706C17.9315 7.85706 17.7868 7.80537 17.6782 7.70198C17.5697 7.5986 17.5154 7.46162 17.5154 7.29363V5.76875C17.5154 5.59817 17.5697 5.46119 17.6808 5.36039C17.7919 5.25701 17.9367 5.20532 18.1124 5.20532C18.7327 5.20532 19.1669 5.21824 19.415 5.24667L19.3814 5.761H18.3941C18.2856 5.761 18.2313 5.81527 18.2313 5.92382V6.24431H19.2419V6.73537H18.2313V7.13597C18.2313 7.24452 18.2856 7.2988 18.3941 7.2988H19.3814V7.30138Z" fill="#002B76"/>
<path d="M7.83884 18.0348L6.911 18.4535C6.89032 18.4638 6.86706 18.4664 6.8438 18.4638C6.82054 18.4587 6.80244 18.4457 6.78694 18.4276L6.62411 18.2312C6.6086 18.2131 6.60085 18.1925 6.59827 18.1692C6.59827 18.1459 6.60344 18.1253 6.61894 18.1046L7.20046 17.2698L7.38913 17.4972L6.93684 18.0839C6.911 18.1149 6.88515 18.1459 6.8593 18.1769L6.88257 18.2054C6.90066 18.195 6.93426 18.1744 6.98853 18.1459L7.64759 17.8074L7.83884 18.0374V18.0348Z" fill="#002B76"/>
<path d="M8.21618 18.3683C8.30405 18.451 8.36091 18.5286 8.38417 18.5984C8.41002 18.6681 8.40743 18.7431 8.37383 18.8206C8.34282 18.9008 8.27562 18.9912 8.17482 19.0946C8.07403 19.198 7.98615 19.2678 7.90862 19.3039C7.83108 19.3401 7.75613 19.3453 7.68635 19.322C7.61657 19.2988 7.53644 19.2471 7.45116 19.1618C7.32193 19.0377 7.2599 18.924 7.26507 18.8206C7.26765 18.7173 7.34519 18.588 7.49251 18.4355C7.63983 18.2831 7.76647 18.2003 7.86985 18.1926C7.97323 18.1848 8.08954 18.2417 8.21876 18.3658L8.21618 18.3683ZM8.11538 18.6707C8.1283 18.6216 8.1128 18.5751 8.06369 18.5286C8.01458 18.4821 7.96548 18.4666 7.91896 18.4821C7.86985 18.4976 7.80265 18.5544 7.71219 18.6475C7.62173 18.7405 7.57004 18.8129 7.55454 18.862C7.53903 18.9111 7.55712 18.9576 7.60623 19.0041C7.65533 19.0507 7.70444 19.0662 7.75096 19.0507C7.80007 19.0352 7.86727 18.9783 7.95772 18.8852C8.04818 18.7922 8.09987 18.7198 8.11538 18.6707Z" fill="#002B76"/>
<path d="M8.87782 18.9705L8.41002 19.5727C8.38417 19.6063 8.38934 19.6399 8.42552 19.6683L8.70982 19.888L8.58835 20.0663C8.50048 20.0146 8.36866 19.919 8.19292 19.782C8.13089 19.7329 8.0947 19.6786 8.08695 19.6192C8.0792 19.5597 8.09729 19.5003 8.14122 19.446L8.65038 18.7896L8.87782 18.9653V18.9705Z" fill="#002B76"/>
<path d="M9.55243 19.4511L9.14149 20.0946C9.11823 20.1308 9.12598 20.1644 9.16733 20.1903L9.46973 20.3841L9.36634 20.5753C9.27589 20.5314 9.13374 20.4487 8.94506 20.3298C8.87787 20.2885 8.8391 20.2368 8.82618 20.1773C8.81325 20.1179 8.82618 20.0584 8.86236 19.999L9.30948 19.2986L9.55243 19.4537V19.4511Z" fill="#002B76"/>
<path d="M10.2941 20.8211L10.2114 21.0123C10.1158 20.9761 9.95814 20.9038 9.73587 20.7901C9.67126 20.7565 9.62732 20.7125 9.60664 20.6557C9.58597 20.5988 9.59114 20.5394 9.62215 20.4773L9.90128 19.9294C9.9323 19.8674 9.97623 19.8286 10.0357 19.8131C10.0951 19.795 10.1546 19.8053 10.2192 19.8364C10.4414 19.9501 10.5965 20.0328 10.6792 20.0896L10.5733 20.268L10.2192 20.0871C10.1804 20.0664 10.1494 20.0767 10.1313 20.1155L10.0719 20.2292L10.4337 20.4127L10.3432 20.5885L9.9814 20.405L9.90904 20.5497C9.88836 20.5885 9.8987 20.6195 9.93747 20.6376L10.2915 20.8185L10.2941 20.8211Z" fill="#002B76"/>
<path d="M11.0488 20.9941L10.9274 21.312L10.6586 21.2087L10.78 20.8933L10.7103 20.0947L10.9894 20.2007L11.0023 20.5884C11.0023 20.622 10.9971 20.6711 10.9842 20.7331L11.0023 20.7409C11.0411 20.6788 11.0695 20.6401 11.0876 20.6194L11.3564 20.3403L11.6329 20.4462L11.0488 20.9941Z" fill="#002B76"/>
<path d="M12.1783 21.1105V21.1183C12.2507 21.1441 12.2998 21.1855 12.3231 21.2398C12.3463 21.294 12.3437 21.3612 12.3231 21.4465C12.2972 21.5473 12.2507 21.6119 12.1861 21.6352C12.1215 21.6585 12.0233 21.6533 11.894 21.6197C11.6899 21.5654 11.5348 21.5215 11.4314 21.4853L11.7002 20.4592C11.7984 20.4773 11.938 20.5083 12.1215 20.5574C12.261 20.5936 12.3541 20.6376 12.4006 20.6893C12.4445 20.7409 12.4549 20.8185 12.4264 20.9219C12.4058 20.9968 12.3773 21.0485 12.3386 21.0795C12.2998 21.1105 12.2481 21.1183 12.1809 21.1079L12.1783 21.1105ZM11.7493 21.3742L11.8914 21.4129C11.9431 21.4258 11.9819 21.4284 12.0026 21.4129C12.0233 21.4 12.0413 21.369 12.0543 21.3199C12.0698 21.2656 12.0698 21.2268 12.0543 21.2036C12.0413 21.1803 12.0077 21.1622 11.9535 21.1493L11.8139 21.1131L11.7467 21.3742H11.7493ZM11.863 20.9425L12 20.9787C12.0465 20.9916 12.0775 20.9916 12.0982 20.9787C12.1189 20.9684 12.1344 20.94 12.1447 20.8934C12.1577 20.8495 12.1551 20.8185 12.1447 20.7978C12.1344 20.7771 12.1008 20.7642 12.0517 20.7513L11.9225 20.7177L11.863 20.9425Z" fill="#002B76"/>
<path d="M13.1062 21.5835L12.7831 21.5369L12.6849 21.7773L12.3928 21.7359L12.8193 20.8029C12.827 20.7822 12.8425 20.7642 12.8606 20.7538C12.8787 20.7435 12.902 20.7383 12.9252 20.7409L13.1889 20.7797C13.2121 20.7822 13.2328 20.7926 13.2483 20.8081C13.2638 20.8236 13.2741 20.8443 13.2767 20.8675L13.4215 21.8833L13.1294 21.8419L13.1036 21.5835H13.1062ZM13.0829 21.3689L13.0545 21.0898C13.0519 21.0355 13.0493 20.9968 13.0493 20.9787L13.0079 20.9735C12.995 21.0123 12.9821 21.0459 12.9718 21.0795L12.8658 21.3379L13.0829 21.3689Z" fill="#002B76"/>
<path d="M13.9306 20.8442L13.8996 21.6066C13.8996 21.6506 13.9202 21.6738 13.9694 21.6764L14.3286 21.6919L14.3338 21.909C14.233 21.9168 14.0702 21.9168 13.8479 21.909C13.7703 21.9064 13.7083 21.8832 13.667 21.8392C13.6256 21.7953 13.6075 21.7384 13.6101 21.6661L13.6437 20.8364L13.9332 20.8468L13.9306 20.8442Z" fill="#002B76"/>
<path d="M14.7602 20.8416L14.7989 21.604C14.7989 21.6479 14.8274 21.6686 14.8739 21.666L15.2331 21.6479L15.259 21.8624C15.1582 21.8805 14.9979 21.8935 14.7731 21.9064C14.6956 21.9116 14.6335 21.8935 14.587 21.8521C14.5431 21.8108 14.5172 21.7565 14.5146 21.6867L14.4707 20.8571L14.7602 20.8416Z" fill="#002B76"/>
<path d="M16.2955 21.462L15.975 21.5214L15.9595 21.7799L15.67 21.8342L15.7734 20.8133C15.7734 20.79 15.7812 20.7693 15.7967 20.7538C15.8122 20.7357 15.8303 20.7254 15.8535 20.7228L16.1172 20.6737C16.1404 20.6685 16.1611 20.6737 16.1818 20.6815C16.2025 20.6918 16.218 20.7073 16.2283 20.728L16.6935 21.6429L16.4041 21.6972L16.2955 21.462ZM16.205 21.2656L16.0887 21.0097C16.0681 20.9606 16.0551 20.9244 16.0474 20.9037L16.006 20.9115C16.006 20.9503 16.006 20.989 16.006 21.0252L15.9905 21.3043L16.205 21.263V21.2656Z" fill="#002B76"/>
<path d="M17.5205 21.1439L17.6032 21.3378C17.523 21.3946 17.4145 21.4437 17.2749 21.4877C17.1121 21.5368 16.9855 21.5316 16.895 21.4747C16.8045 21.4153 16.7296 21.2912 16.6727 21.0974C16.6133 20.9036 16.6055 20.7588 16.6495 20.6606C16.6934 20.5624 16.7942 20.4875 16.957 20.4384C17.0811 20.4022 17.1922 20.3815 17.2879 20.3789L17.3292 20.5883C17.2284 20.6167 17.1276 20.6451 17.0268 20.6735C16.9648 20.6916 16.9312 20.7252 16.9208 20.7692C16.9105 20.8157 16.9234 20.8958 16.9596 21.0095C16.9958 21.1233 17.0268 21.1956 17.0604 21.2292C17.094 21.2628 17.1405 21.2706 17.2 21.2525C17.3421 21.2085 17.4481 21.1724 17.5179 21.1439H17.5205Z" fill="#002B76"/>
<path d="M18.2623 20.8286L17.9625 20.9553L18.0039 21.2111L17.7325 21.3274L17.6136 20.3091C17.6084 20.2859 17.6136 20.2652 17.6239 20.2445C17.6343 20.2238 17.6524 20.2109 17.673 20.2006L17.9186 20.0972C17.9393 20.0868 17.9625 20.0868 17.9832 20.092C18.0039 20.0972 18.0245 20.1101 18.0375 20.1282L18.6888 20.9217L18.4174 21.038L18.2597 20.8312L18.2623 20.8286ZM18.1305 20.658L17.9625 20.4332C17.9315 20.3892 17.9108 20.3582 17.9005 20.3401L17.8617 20.3556C17.8695 20.3944 17.8772 20.4306 17.885 20.4668L17.9289 20.7433L18.1305 20.658Z" fill="#002B76"/>
<path d="M18.8516 20.8365L18.3269 19.9164C18.4716 19.8233 18.5957 19.7458 18.6965 19.6889C18.8516 19.6011 18.9782 19.5726 19.0764 19.6062C19.1746 19.6398 19.2754 19.7458 19.3788 19.9293C19.4822 20.1128 19.5235 20.2524 19.5029 20.3532C19.4796 20.454 19.3917 20.5496 19.2367 20.6375C19.1074 20.7098 18.9782 20.777 18.8516 20.8391V20.8365ZM18.6784 19.9474L19.0041 20.516C19.0299 20.5031 19.0738 20.4798 19.1307 20.4462C19.1876 20.4126 19.216 20.3713 19.216 20.3221C19.216 20.273 19.1824 20.1903 19.1178 20.0766C19.0532 19.9629 18.9989 19.8931 18.9575 19.8647C18.9136 19.8363 18.8645 19.8388 18.8076 19.8724L18.681 19.9448L18.6784 19.9474Z" fill="#002B76"/>
<path d="M20.3221 19.632L20.454 19.7923C20.379 19.8595 20.2394 19.968 20.0378 20.1127C19.9784 20.1541 19.919 20.1722 19.8595 20.1644C19.8001 20.1567 19.7484 20.1257 19.7096 20.0688L19.3504 19.57C19.309 19.5157 19.2961 19.4563 19.309 19.3968C19.3219 19.3374 19.3555 19.2857 19.415 19.2443C19.6166 19.097 19.7613 18.9988 19.8492 18.9497L19.9603 19.1255L19.6372 19.3581C19.6011 19.3839 19.5959 19.4149 19.6217 19.4511L19.6967 19.5545L20.0275 19.3167L20.1438 19.477L19.813 19.7147L19.9086 19.8465C19.9345 19.8827 19.9655 19.8879 20.0017 19.862L20.3247 19.6294L20.3221 19.632Z" fill="#002B76"/>
<path d="M20.5676 18.2907L20.7589 18.1098C20.808 18.0633 20.8571 18.0659 20.9062 18.1124L21.5885 18.7844L21.3973 18.9653L20.7977 18.376L20.7796 18.3941L21.0923 18.9136C21.1259 18.9653 21.1181 19.0118 21.0716 19.0557L20.9527 19.1669C20.9062 19.2108 20.8597 19.2134 20.808 19.1798L20.3066 18.8361L20.2885 18.8516L20.8442 19.4822L20.6529 19.6631L20.0249 18.9394C19.981 18.8877 19.9809 18.8386 20.0301 18.7921L20.2187 18.6164C20.2652 18.5724 20.3118 18.5698 20.3635 18.606L20.7589 18.88C20.7847 18.8981 20.8261 18.9317 20.8804 18.9782L20.8933 18.9679C20.8933 18.9679 20.8752 18.9446 20.8545 18.911C20.8313 18.88 20.8158 18.8567 20.8054 18.8386L20.5547 18.4303C20.5211 18.3786 20.5289 18.3295 20.5754 18.2881L20.5676 18.2907Z" fill="#002B76"/>
<path d="M21.8341 17.9521L22.0978 18.1666L21.9142 18.3889L21.6532 18.1744L20.8727 17.9883L21.0614 17.7583L21.4335 17.8668C21.4645 17.8772 21.5111 17.8979 21.5653 17.9289L21.5783 17.9134C21.5317 17.8565 21.5033 17.8177 21.4904 17.7945L21.3095 17.4507L21.4981 17.2207L21.8341 17.947V17.9521Z" fill="#002B76"/>
<path d="M10.5785 2.81445L11.023 3.7759L10.762 3.89737L10.5707 3.48126L10.2839 3.61307L10.4751 4.02918L10.2141 4.15066L9.76953 3.18921L10.0306 3.06774L10.196 3.42182L10.4829 3.29001L10.3175 2.93593L10.5785 2.81445Z" fill="#002B76"/>
<path d="M11.2583 2.55084C11.372 2.51466 11.4676 2.49915 11.54 2.50949C11.6124 2.51983 11.677 2.5586 11.7312 2.62321C11.7855 2.68782 11.8346 2.79121 11.8812 2.92819C11.9251 3.06517 11.9458 3.1763 11.9406 3.26159C11.9354 3.34688 11.9044 3.41408 11.8527 3.46577C11.7984 3.51746 11.7157 3.5614 11.5994 3.59758C11.4289 3.65186 11.2996 3.65444 11.2118 3.60275C11.1213 3.55106 11.0438 3.42442 10.9791 3.22024C10.9145 3.01865 10.9016 2.86874 10.943 2.77311C10.9843 2.67749 11.0903 2.60253 11.2609 2.54826L11.2583 2.55084ZM11.478 2.78345C11.4418 2.74727 11.3901 2.73952 11.3281 2.76278C11.2634 2.78345 11.2273 2.81964 11.2195 2.86874C11.2118 2.91785 11.2273 3.00572 11.266 3.12978C11.3074 3.25384 11.3436 3.33396 11.3798 3.36756C11.4159 3.40374 11.4676 3.41149 11.5297 3.39082C11.5943 3.37014 11.6305 3.33396 11.6382 3.28485C11.646 3.23575 11.6305 3.14787 11.5917 3.02381C11.5503 2.89976 11.5141 2.81964 11.478 2.78604V2.78345Z" fill="#002B76"/>
<path d="M12.8864 2.1814L13.0699 3.12217C13.0828 3.18937 13.057 3.22813 12.9924 3.24106L12.858 3.2669C12.8321 3.27207 12.8089 3.26949 12.7908 3.26173C12.7727 3.25139 12.7546 3.2333 12.7314 3.20746L12.3979 2.80944C12.3618 2.76292 12.3282 2.71123 12.2971 2.65178H12.2842C12.3049 2.71381 12.3204 2.77326 12.3307 2.83012L12.4315 3.35219L12.1679 3.40388L11.9844 2.46311C11.9715 2.39591 11.9973 2.35714 12.0645 2.34422L12.1964 2.31838C12.2222 2.31321 12.2455 2.31579 12.2636 2.32613C12.2816 2.33647 12.2997 2.35456 12.323 2.38041L12.6461 2.76292C12.6797 2.80427 12.7184 2.85596 12.7572 2.92057H12.7701C12.7494 2.85079 12.7339 2.79135 12.7236 2.73707L12.6254 2.23309L12.8864 2.1814Z" fill="#002B76"/>
<path d="M14.0495 2.53292L14.0961 3.14028L13.8841 3.15579L13.8505 3.04983C13.8221 3.08601 13.7833 3.11961 13.7342 3.15062C13.6851 3.17905 13.6283 3.19714 13.5637 3.20231C13.4422 3.21265 13.3517 3.17388 13.2923 3.09376C13.2302 3.01106 13.1941 2.87408 13.1786 2.67765C13.163 2.47347 13.1889 2.32874 13.2561 2.24345C13.3233 2.15816 13.4448 2.10647 13.6257 2.09355C13.7601 2.08321 13.879 2.08838 13.9798 2.10906L13.972 2.3184C13.8609 2.32357 13.7523 2.33133 13.6464 2.33908C13.5714 2.34425 13.5223 2.36751 13.5016 2.40886C13.4784 2.45021 13.4732 2.53292 13.4809 2.65956C13.4887 2.77587 13.5068 2.85599 13.5301 2.89475C13.5559 2.93611 13.5973 2.95161 13.6567 2.94903C13.7058 2.94644 13.7549 2.93352 13.804 2.91285L13.7782 2.55618L14.0547 2.5355L14.0495 2.53292Z" fill="#002B76"/>
<path d="M15.0239 2.7189L14.9515 2.71374C14.9567 2.74992 14.9593 2.78352 14.9567 2.81195L14.9282 3.16603L14.6414 3.14277L14.7266 2.08569L15.0135 2.10895L14.9903 2.38808C14.9851 2.43719 14.9799 2.47854 14.967 2.5199L15.0394 2.52506L15.3133 2.13222L15.6235 2.15806L15.334 2.55349C15.3108 2.58968 15.2797 2.61811 15.241 2.6362V2.64137C15.2797 2.6698 15.3108 2.70598 15.3314 2.74992L15.5563 3.21514L15.2384 3.18929L15.0265 2.7189H15.0239Z" fill="#002B76"/>
<path d="M16.2205 2.24586C16.3394 2.26912 16.4273 2.30272 16.4867 2.34666C16.5462 2.3906 16.585 2.45521 16.6005 2.53791C16.616 2.62062 16.6108 2.73434 16.585 2.87649C16.5565 3.01864 16.5203 3.1246 16.4738 3.19697C16.4273 3.26934 16.3679 3.31328 16.2981 3.33395C16.2257 3.35204 16.1327 3.35204 16.0138 3.32878C15.838 3.29518 15.7243 3.23315 15.6726 3.14528C15.6183 3.05741 15.6132 2.9075 15.6519 2.69816C15.6933 2.48881 15.7527 2.35183 15.8354 2.2898C15.9181 2.22777 16.0474 2.21226 16.2205 2.24586ZM16.3007 2.55342C16.2851 2.50432 16.2464 2.4733 16.1792 2.46038C16.112 2.44746 16.0629 2.46038 16.0319 2.50173C16.0008 2.5405 15.9724 2.62579 15.9466 2.75243C15.9233 2.87907 15.9181 2.96953 15.9311 3.01605C15.9466 3.06516 15.9853 3.09617 16.0525 3.1091C16.1197 3.12202 16.1688 3.1091 16.1999 3.06774C16.2309 3.02898 16.2593 2.94369 16.2851 2.81704C16.3084 2.6904 16.3136 2.59994 16.3007 2.55342Z" fill="#002B76"/>
<path d="M17.8255 2.70865L17.5309 3.62099C17.5102 3.68561 17.4688 3.70628 17.4042 3.68561L17.275 3.64425C17.2491 3.6365 17.231 3.62358 17.2207 3.60549C17.2104 3.58739 17.2026 3.56413 17.1949 3.52795L17.0941 3.0188C17.0837 2.95935 17.0786 2.89732 17.0811 2.83271H17.0682C17.0553 2.89215 17.0424 2.9516 17.0243 3.00587L16.8615 3.51244L16.6056 3.42974L16.9002 2.5174C16.9209 2.45278 16.9648 2.43211 17.0269 2.45278L17.1561 2.49413C17.1819 2.50189 17.2 2.51481 17.2104 2.5329C17.2207 2.54841 17.2285 2.57426 17.2362 2.61044L17.3318 3.1015C17.3422 3.15319 17.3499 3.2178 17.3525 3.29534H17.3654C17.381 3.23073 17.3965 3.1687 17.412 3.11959L17.5696 2.63112L17.8229 2.71382L17.8255 2.70865Z" fill="#002B76"/>
<path d="M18.6759 3.57958L18.42 4.13267L18.2261 4.0448L18.2494 3.93625C18.2055 3.95434 18.1564 3.96468 18.0995 3.96726C18.0426 3.96726 17.9832 3.95692 17.9238 3.92849C17.8152 3.8768 17.7532 3.80185 17.7377 3.70105C17.7247 3.60026 17.7583 3.46069 17.8411 3.28236C17.9263 3.09627 18.0194 2.98255 18.1202 2.93862C18.221 2.89468 18.3528 2.91277 18.5156 2.98772C18.6371 3.04458 18.7379 3.10661 18.818 3.17381L18.7095 3.35473C18.6112 3.30562 18.513 3.2591 18.4148 3.21516C18.3476 3.18415 18.2933 3.18156 18.2546 3.20482C18.2158 3.23067 18.1693 3.30045 18.115 3.41417C18.0659 3.52014 18.0426 3.59767 18.0452 3.64419C18.0452 3.69072 18.0762 3.7269 18.1279 3.75274C18.1719 3.77342 18.221 3.78634 18.2753 3.79151L18.4252 3.46586L18.6759 3.58216V3.57958Z" fill="#002B76"/>
<path d="M21.524 14.282C21.1725 14.8739 20.8107 15.4761 20.4592 16.0499C20.9761 16.0343 21.493 16.0188 22.0125 16.0007C23.6588 15.9491 25.1734 15.0548 25.9513 13.6023C26.8611 11.9146 27.7657 10.1339 28.6625 8.22905C28.6909 8.16961 28.6392 8.10499 28.5746 8.1205C28.1663 8.21613 27.7605 8.30917 27.3521 8.39704C26.9309 8.4875 26.5096 8.57538 26.0857 8.6555C25.2432 8.81832 24.398 8.96564 23.5503 9.09228C22.6612 9.22668 21.7695 9.3404 20.8753 9.43603C20.193 10.6068 19.5107 11.7414 18.8283 12.8528C18.6526 13.1397 18.4768 13.424 18.3011 13.7083C17.7971 14.5224 17.2905 15.3236 16.7866 16.1196C17.6782 16.1093 18.5725 16.0938 19.4641 16.0731C19.9681 15.2564 20.4747 14.4294 20.9787 13.5816C21.829 13.5299 22.6767 13.4705 23.5244 13.4007C23.2298 13.9176 22.6509 14.2536 22.0306 14.2691L21.524 14.2794V14.282ZM22.0332 11.7905C22.1856 11.5243 22.3407 11.2555 22.4932 10.9867C23.3409 10.8937 24.1887 10.7877 25.0338 10.6663C24.7521 11.1961 24.2042 11.5657 23.6071 11.6303C23.0825 11.6897 22.5578 11.7414 22.0306 11.7905H22.0332ZM11.8811 16.1248C10.1391 16.1041 8.39715 16.0654 6.65517 16.0033C5.00882 15.9516 3.49429 15.0574 2.71634 13.6049C1.80917 11.9172 0.904581 10.1364 0.00774662 8.23163C-0.0206833 8.17219 0.0310074 8.10758 0.0956208 8.12308C0.922672 8.31951 1.75231 8.49784 2.58453 8.66067C4.311 8.99666 6.05039 9.2577 7.79495 9.44378C8.14645 10.0486 8.49795 10.643 8.85203 11.2297C7.10747 11.1031 5.36549 10.9144 3.63127 10.6663C3.91298 11.1961 4.4609 11.5657 5.05793 11.6303C6.47167 11.788 7.89058 11.9094 9.31208 11.9947C9.66357 12.5737 10.0151 13.1474 10.3666 13.7134C8.622 13.6514 6.88003 13.548 5.14063 13.4059C5.42493 13.9047 5.97286 14.2355 6.57247 14.2717C7.98879 14.357 9.4077 14.4164 10.8292 14.4552C11.1807 15.016 11.5322 15.5743 11.8811 16.1274V16.1248ZM20.0069 9.52907C18.1098 12.7339 16.2128 15.6751 14.3338 18.6163C12.4549 15.6751 10.5604 12.7313 8.66077 9.52907C9.51625 9.60919 10.3717 9.66864 11.2298 9.71257C11.5244 9.72808 11.7932 9.88315 11.9483 10.1339C12.7443 11.4054 13.5404 12.6512 14.3338 13.8866C15.1273 12.6512 15.9207 11.4054 16.7194 10.1339C16.8744 9.88315 17.1432 9.72808 17.4379 9.71257C18.2959 9.66864 19.1514 9.60919 20.0069 9.52907Z" fill="#FF2300"/>
<path d="M35.2427 14.1658V17.0605H34.6044V15.7682H33.5809V17.0605H32.9425V14.1658H33.5809V15.2745H34.6044V14.1658H35.2427Z" fill="#002B76"/>
<path d="M36.7702 14.9333C37.1552 14.9333 37.4292 15.0161 37.5895 15.184C37.7497 15.3495 37.8298 15.6312 37.8298 16.0292C37.8298 16.4272 37.7497 16.7063 37.5895 16.8692C37.4292 17.032 37.1552 17.1147 36.7702 17.1147C36.3851 17.1147 36.1059 17.032 35.9457 16.8692C35.7854 16.7063 35.7053 16.4246 35.7053 16.0292C35.7053 15.6338 35.7854 15.3469 35.9457 15.1815C36.1059 15.0161 36.3825 14.9333 36.7702 14.9333ZM36.7702 15.4012C36.6047 15.4012 36.4936 15.4425 36.4393 15.5278C36.3825 15.6105 36.3566 15.7785 36.3566 16.0318C36.3566 16.2851 36.3851 16.4427 36.4393 16.528C36.4962 16.6107 36.6047 16.6547 36.7702 16.6547C36.9356 16.6547 37.0389 16.6133 37.0958 16.528C37.1527 16.4453 37.1811 16.2799 37.1811 16.0318C37.1811 15.7837 37.1527 15.6157 37.0984 15.5304C37.0415 15.4451 36.933 15.4012 36.7702 15.4012Z" fill="#002B76"/>
<path d="M38.7578 14.9928L38.8043 15.2978C39.1041 15.0548 39.3987 14.9333 39.6882 14.9333C39.8743 14.9333 40.019 14.9825 40.1172 15.0807C40.2154 15.1789 40.2671 15.321 40.2671 15.5097V17.063H39.6494V15.7035C39.6494 15.6105 39.6339 15.5485 39.6055 15.5123C39.5771 15.4761 39.5228 15.4606 39.4478 15.4606C39.316 15.4606 39.1248 15.5226 38.8741 15.6493V17.063H38.2538V14.9954H38.7578V14.9928Z" fill="#002B76"/>
<path d="M42.8568 15.2669L42.5958 15.3005C42.6294 15.378 42.6449 15.4788 42.6449 15.5977C42.6449 15.838 42.5725 16.0086 42.4278 16.1094C42.2831 16.2102 42.0324 16.2593 41.6705 16.2593C41.549 16.2593 41.4302 16.2516 41.3139 16.2386C41.2803 16.2826 41.2751 16.3343 41.2958 16.3885C41.3164 16.4454 41.363 16.4764 41.4353 16.4842L42.1874 16.572C42.3994 16.5979 42.5518 16.6599 42.6475 16.7555C42.7405 16.8538 42.787 16.9985 42.787 17.1872C42.787 17.4508 42.7069 17.6265 42.5493 17.7196C42.3916 17.8126 42.1073 17.8591 41.699 17.8591C41.2906 17.8591 40.9856 17.8152 40.8357 17.7273C40.6858 17.6395 40.6083 17.4766 40.6083 17.244C40.6083 17.1381 40.6315 17.0502 40.6806 16.983C40.7297 16.9132 40.815 16.8512 40.9339 16.7969C40.8383 16.7039 40.7995 16.5901 40.8176 16.4557C40.8357 16.3213 40.8977 16.2205 41.0011 16.1611C40.7969 16.0655 40.6962 15.8794 40.6962 15.6028C40.6962 15.3599 40.7685 15.1867 40.9133 15.0859C41.058 14.9851 41.3113 14.936 41.6731 14.936C41.8902 14.936 42.0711 14.9567 42.2133 14.9955H42.8801L42.8517 15.2694L42.8568 15.2669ZM41.8566 16.983L41.3371 16.9287C41.2467 17.0011 41.2027 17.0812 41.2027 17.1691C41.2027 17.2699 41.2337 17.3345 41.2958 17.3629C41.3578 17.3913 41.4896 17.4043 41.6938 17.4043C41.898 17.4043 42.0324 17.3888 42.0996 17.3603C42.1642 17.3319 42.1978 17.2699 42.1978 17.1768C42.1978 17.1045 42.1771 17.0579 42.1357 17.0373C42.0944 17.0166 42.0013 16.9985 41.8592 16.983H41.8566ZM41.6731 15.8665C41.823 15.8665 41.929 15.8458 41.9858 15.807C42.0427 15.7683 42.0711 15.6985 42.0711 15.5977C42.0711 15.4969 42.0427 15.4245 41.9884 15.3883C41.9316 15.3521 41.8282 15.3341 41.6731 15.3341C41.518 15.3341 41.4147 15.3521 41.3552 15.3883C41.2983 15.4245 41.2699 15.4943 41.2699 15.5977C41.2699 15.7011 41.2983 15.7683 41.3552 15.807C41.4121 15.8458 41.518 15.8665 41.6731 15.8665Z" fill="#002B76"/>
<path d="M44.9994 15.7863H44.7513C44.772 15.8974 44.7797 15.9905 44.7797 16.0628V17.0605H44.1414V14.1658H44.7797V14.9851C44.7797 15.1091 44.7694 15.2228 44.7513 15.3288H44.9994L45.7334 14.1658H46.4261L45.6792 15.3185C45.6326 15.4012 45.5629 15.4787 45.4698 15.5485V15.5666C45.5706 15.6364 45.6507 15.7217 45.7128 15.8225L46.4752 17.0605H45.7619L44.9994 15.7863Z" fill="#002B76"/>
<path d="M47.6588 14.9333C48.0439 14.9333 48.3179 15.0161 48.4781 15.184C48.6384 15.3495 48.7185 15.6312 48.7185 16.0292C48.7185 16.4272 48.6384 16.7063 48.4781 16.8692C48.3179 17.032 48.0439 17.1147 47.6588 17.1147C47.2737 17.1147 46.9946 17.032 46.8344 16.8692C46.6741 16.7063 46.594 16.4246 46.594 16.0292C46.594 15.6338 46.6741 15.3469 46.8344 15.1815C46.9946 15.0161 47.2711 14.9333 47.6588 14.9333ZM47.6588 15.4012C47.4934 15.4012 47.3823 15.4425 47.328 15.5278C47.2711 15.6105 47.2453 15.7785 47.2453 16.0318C47.2453 16.2851 47.2737 16.4427 47.328 16.528C47.3849 16.6107 47.4934 16.6547 47.6588 16.6547C47.8242 16.6547 47.9276 16.6133 47.9845 16.528C48.0413 16.4453 48.0698 16.2799 48.0698 16.0318C48.0698 15.7837 48.0413 15.6157 47.9871 15.5304C47.9302 15.4451 47.8216 15.4012 47.6588 15.4012Z" fill="#002B76"/>
<path d="M49.649 14.9928L49.6955 15.2978C49.9953 15.0548 50.29 14.9333 50.5794 14.9333C50.7655 14.9333 50.9103 14.9825 51.0085 15.0807C51.1067 15.1789 51.1584 15.321 51.1584 15.5097V17.063H50.5407V15.7035C50.5407 15.6105 50.5252 15.5485 50.4967 15.5123C50.4683 15.4761 50.414 15.4606 50.3391 15.4606C50.2073 15.4606 50.016 15.5226 49.7653 15.6493V17.063H49.145V14.9954H49.649V14.9928Z" fill="#002B76"/>
<path d="M53.7454 15.2669L53.4843 15.3005C53.5179 15.378 53.5334 15.4788 53.5334 15.5977C53.5334 15.838 53.4611 16.0086 53.3163 16.1094C53.1716 16.2102 52.9209 16.2593 52.5591 16.2593C52.4376 16.2593 52.3187 16.2516 52.2024 16.2386C52.1688 16.2826 52.1636 16.3343 52.1843 16.3885C52.205 16.4454 52.2515 16.4764 52.3239 16.4842L53.076 16.572C53.2879 16.5979 53.4404 16.6599 53.536 16.7555C53.6291 16.8538 53.6756 16.9985 53.6756 17.1872C53.6756 17.4508 53.5955 17.6265 53.4378 17.7196C53.2802 17.8126 52.9959 17.8591 52.5875 17.8591C52.1791 17.8591 51.8742 17.8152 51.7243 17.7273C51.5744 17.6395 51.4968 17.4766 51.4968 17.244C51.4968 17.1381 51.5201 17.0502 51.5692 16.983C51.6183 16.9132 51.7036 16.8512 51.8225 16.7969C51.7268 16.7039 51.6881 16.5901 51.7062 16.4557C51.7243 16.3213 51.7863 16.2205 51.8897 16.1611C51.6855 16.0655 51.5847 15.8794 51.5847 15.6028C51.5847 15.3599 51.6571 15.1867 51.8018 15.0859C51.9465 14.9851 52.1998 14.936 52.5617 14.936C52.7788 14.936 52.9597 14.9567 53.1018 14.9955H53.7686L53.7402 15.2694L53.7454 15.2669ZM52.7477 16.983L52.2283 16.9287C52.1378 17.0011 52.0939 17.0812 52.0939 17.1691C52.0939 17.2699 52.1249 17.3345 52.1869 17.3629C52.2489 17.3913 52.3807 17.4043 52.5849 17.4043C52.7891 17.4043 52.9235 17.3888 52.9907 17.3603C53.0553 17.3319 53.0889 17.2699 53.0889 17.1768C53.0889 17.1045 53.0682 17.0579 53.0269 17.0373C52.9855 17.0166 52.8925 16.9985 52.7503 16.983H52.7477ZM52.5642 15.8665C52.7141 15.8665 52.8201 15.8458 52.877 15.807C52.9338 15.7683 52.9623 15.6985 52.9623 15.5977C52.9623 15.4969 52.9338 15.4245 52.8796 15.3883C52.8227 15.3521 52.7193 15.3341 52.5642 15.3341C52.4092 15.3341 52.3058 15.3521 52.2463 15.3883C52.1895 15.4245 52.1611 15.4943 52.1611 15.5977C52.1611 15.7011 52.1895 15.7683 52.2463 15.807C52.3032 15.8458 52.4092 15.8665 52.5642 15.8665Z" fill="#002B76"/>
<path d="M56.9606 16.5616L56.989 17.032C56.7254 17.0604 56.2783 17.0734 55.6477 17.0734C55.4538 17.0734 55.3013 17.0217 55.185 16.9157C55.0713 16.8097 55.0119 16.6702 55.0093 16.4893V14.7369C55.0119 14.5586 55.0713 14.4165 55.185 14.3105C55.2987 14.2045 55.4538 14.1528 55.6477 14.1528C56.2809 14.1528 56.728 14.1658 56.989 14.1942L56.9606 14.6672H55.8493C55.7795 14.6672 55.7278 14.6827 55.6993 14.7163C55.6683 14.7499 55.6528 14.8041 55.6528 14.8791V15.3185H56.8055V15.7811H55.6528V16.3393C55.6528 16.4169 55.6683 16.4737 55.6993 16.5073C55.7304 16.5409 55.7795 16.5565 55.8493 16.5565H56.9606V16.5616Z" fill="#002B76"/>
<path d="M58.0332 14.1244V16.3859C58.0332 16.5254 58.1108 16.5952 58.2684 16.5952H58.4364L58.5088 17.0268C58.4028 17.0837 58.2374 17.1095 58.0126 17.1095C57.8291 17.1095 57.6817 17.0604 57.5758 16.9596C57.4698 16.8614 57.4155 16.7193 57.4155 16.5384V14.1218H58.0332V14.1244Z" fill="#002B76"/>
<path d="M58.9688 14.0779H59.2453C59.3668 14.0779 59.4262 14.1373 59.4262 14.2588V14.4862C59.4262 14.6077 59.3668 14.6672 59.2453 14.6672H58.9688C58.8473 14.6672 58.7878 14.6077 58.7878 14.4862V14.2588C58.7878 14.1373 58.8473 14.0779 58.9688 14.0779ZM59.4185 17.0604H58.8008V14.9928H59.4185V17.0604Z" fill="#002B76"/>
<path d="M60.7469 15.409V16.386C60.7469 16.4635 60.765 16.5178 60.796 16.5488C60.8296 16.5798 60.8891 16.5953 60.9718 16.5953H61.2354L61.3026 17.0269C61.1424 17.0838 60.9485 17.1096 60.7185 17.1096C60.5298 17.1096 60.3851 17.0579 60.2817 16.952C60.1783 16.846 60.1266 16.7013 60.1266 16.5126V15.4064H59.7622V15.011L60.1266 14.9903V14.4114H60.7443V14.9903H61.3181V15.4064H60.7443L60.7469 15.409Z" fill="#002B76"/>
<path d="M62.9825 16.2361H62.2356C62.2563 16.386 62.3002 16.4893 62.3726 16.541C62.4449 16.5927 62.5612 16.6186 62.7266 16.6186C62.9463 16.6186 63.2048 16.6031 63.4994 16.572L63.5589 16.9571C63.3443 17.0605 63.0419 17.1122 62.6569 17.1122C62.2718 17.1122 61.99 17.0295 61.8272 16.8615C61.6618 16.6935 61.5791 16.417 61.5791 16.0319C61.5791 15.6261 61.6592 15.3418 61.8195 15.179C61.9797 15.0162 62.2511 14.936 62.631 14.936C62.9748 14.936 63.2229 14.9955 63.3779 15.1144C63.5304 15.2333 63.6105 15.4142 63.6131 15.6571C63.6131 15.851 63.564 15.9957 63.4632 16.0913C63.365 16.1869 63.2048 16.2361 62.9825 16.2361ZM62.2252 15.8613H62.8119C62.8869 15.8613 62.9386 15.8432 62.9644 15.807C62.9903 15.7708 63.0032 15.7166 63.0032 15.6468C63.0032 15.5486 62.9773 15.4814 62.9282 15.4426C62.8791 15.4038 62.7861 15.3857 62.6517 15.3857C62.4914 15.3857 62.3829 15.4168 62.3234 15.4814C62.264 15.5434 62.2304 15.67 62.2227 15.8613H62.2252Z" fill="#002B76"/>
<path d="M67.2134 14.1658L66.4277 16.8847C66.4148 16.939 66.3864 16.9803 66.345 17.0139C66.3037 17.0449 66.2572 17.063 66.2003 17.063H65.6162C65.5593 17.063 65.5128 17.0475 65.4715 17.0139C65.4301 16.9829 65.4043 16.939 65.3887 16.8847L64.6005 14.1658H65.2595L65.7842 16.2541C65.8126 16.3652 65.8359 16.4738 65.8565 16.5771H65.9625C65.9703 16.5229 65.9935 16.4169 66.0349 16.2541L66.5544 14.1658H67.2134Z" fill="#002B76"/>
<path d="M68.3119 14.9333C68.697 14.9333 68.971 15.0161 69.1312 15.184C69.2914 15.3495 69.3716 15.6312 69.3716 16.0292C69.3716 16.4272 69.2914 16.7063 69.1312 16.8692C68.971 17.032 68.697 17.1147 68.3119 17.1147C67.9268 17.1147 67.6477 17.032 67.4874 16.8692C67.3272 16.7063 67.2471 16.4246 67.2471 16.0292C67.2471 15.6338 67.3272 15.3469 67.4874 15.1815C67.6477 15.0161 67.9242 14.9333 68.3119 14.9333ZM68.3119 15.4012C68.1465 15.4012 68.0354 15.4425 67.9811 15.5278C67.9242 15.6105 67.8984 15.7785 67.8984 16.0318C67.8984 16.2851 67.9268 16.4427 67.9811 16.528C68.0379 16.6107 68.1465 16.6547 68.3119 16.6547C68.4773 16.6547 68.5807 16.6133 68.6376 16.528C68.6944 16.4453 68.7228 16.2799 68.7228 16.0318C68.7228 15.7837 68.6944 15.6157 68.6401 15.5304C68.5833 15.4451 68.4747 15.4012 68.3119 15.4012Z" fill="#002B76"/>
<path d="M70.4182 14.1244V16.3859C70.4182 16.5254 70.4958 16.5952 70.6534 16.5952H70.8214L70.8938 17.0268C70.7878 17.0837 70.6224 17.1095 70.3976 17.1095C70.2141 17.1095 70.0667 17.0604 69.9608 16.9596C69.8548 16.8614 69.8005 16.7193 69.8005 16.5384V14.1218H70.4182V14.1244Z" fill="#002B76"/>
<path d="M71.7881 14.1244V16.3859C71.7881 16.5254 71.8657 16.5952 72.0233 16.5952H72.1913L72.2637 17.0268C72.1577 17.0837 71.9923 17.1095 71.7674 17.1095C71.5839 17.1095 71.4366 17.0604 71.3307 16.9596C71.2247 16.8614 71.1704 16.7193 71.1704 16.5384V14.1218H71.7881V14.1244Z" fill="#002B76"/>
<path d="M73.8582 16.2361H73.1113C73.132 16.386 73.1759 16.4893 73.2483 16.541C73.3207 16.5927 73.437 16.6186 73.6024 16.6186C73.8221 16.6186 74.0805 16.6031 74.3751 16.572L74.4346 16.9571C74.2201 17.0605 73.9177 17.1122 73.5326 17.1122C73.1475 17.1122 72.8658 17.0295 72.7029 16.8615C72.5375 16.6935 72.4548 16.417 72.4548 16.0319C72.4548 15.6261 72.535 15.3418 72.6952 15.179C72.8554 15.0162 73.1268 14.936 73.5067 14.936C73.8505 14.936 74.0986 14.9955 74.2537 15.1144C74.4062 15.2333 74.4863 15.4142 74.4889 15.6571C74.4889 15.851 74.4398 15.9957 74.339 16.0913C74.2408 16.1869 74.0805 16.2361 73.8582 16.2361ZM73.0984 15.8613H73.6851C73.76 15.8613 73.8117 15.8432 73.8376 15.807C73.8634 15.7708 73.8763 15.7166 73.8763 15.6468C73.8763 15.5486 73.8505 15.4814 73.8014 15.4426C73.7523 15.4038 73.6592 15.3857 73.5248 15.3857C73.3646 15.3857 73.256 15.4168 73.1966 15.4814C73.1372 15.5434 73.1036 15.67 73.0958 15.8613H73.0984Z" fill="#002B76"/>
<path d="M76.9365 14.9929L76.2025 17.0916C76.1637 17.2027 76.1146 17.3061 76.0578 17.4017C76.0009 17.4973 75.9259 17.5878 75.8381 17.6757C75.7476 17.7635 75.6365 17.8282 75.5047 17.8695C75.3729 17.9109 75.2255 17.9238 75.0627 17.9031L75.0136 17.5387C75.1816 17.4948 75.3134 17.4353 75.409 17.3655C75.5047 17.2932 75.577 17.1975 75.6313 17.0786L75.6391 17.0605H75.5228C75.4194 17.0605 75.3522 17.0114 75.3212 16.9106L74.6466 14.9929H75.3082L75.6933 16.3317C75.7192 16.4299 75.7399 16.5333 75.7554 16.6419H75.8096C75.8174 16.6083 75.8329 16.5566 75.851 16.4842C75.8717 16.4118 75.8846 16.3627 75.8924 16.3317L76.2749 14.9929H76.9365Z" fill="#002B76"/>
<path d="M77.8437 14.1245V14.7836C77.8437 14.9774 77.8256 15.1376 77.7894 15.2695C78.0065 15.0446 78.2521 14.9335 78.5234 14.9335C78.7948 14.9335 78.9861 15.0162 79.105 15.1842C79.2238 15.3496 79.2833 15.6261 79.2833 16.0086C79.2833 16.3627 79.2109 16.6367 79.0662 16.8279C78.9215 17.0192 78.6552 17.1122 78.2727 17.1122C78.1047 17.1122 77.9161 17.0993 77.7093 17.0709C77.5 17.0425 77.3371 17.0037 77.2208 16.9546V14.1271H77.8463L77.8437 14.1245ZM77.8385 15.6055V16.6134C77.9807 16.6444 78.1202 16.6574 78.2572 16.6522C78.3994 16.647 78.5002 16.5979 78.557 16.51C78.6139 16.4196 78.6423 16.2568 78.6423 16.0138C78.6423 15.7709 78.6191 15.6287 78.57 15.5512C78.5234 15.4711 78.4226 15.4323 78.2727 15.4323C78.159 15.4323 78.0117 15.4917 77.8359 15.608L77.8385 15.6055Z" fill="#002B76"/>
<path d="M79.764 15.4555L79.7045 15.0368C80.0767 14.9696 80.436 14.936 80.7823 14.936C81.0614 14.936 81.2682 14.9929 81.4 15.1066C81.5318 15.2203 81.5964 15.4168 81.5964 15.6959V17.0631H81.1054L81.0433 16.7478C80.8366 16.9907 80.5807 17.1122 80.2809 17.1122C80.0819 17.1122 79.919 17.0605 79.795 16.9546C79.6683 16.8486 79.6063 16.7039 79.6063 16.5152V16.3058C79.6063 16.1404 79.6632 16.0112 79.7743 15.9207C79.8855 15.8277 80.0405 15.7812 80.2395 15.7812H80.9787V15.6881C80.9761 15.5822 80.9503 15.5098 80.9063 15.4736C80.8598 15.4374 80.7719 15.4193 80.6401 15.4193C80.4101 15.4193 80.1206 15.4297 79.7666 15.4529L79.764 15.4555ZM80.2163 16.3524V16.4325C80.2163 16.5746 80.2964 16.647 80.4592 16.647C80.622 16.647 80.7978 16.5798 80.9761 16.4454V16.1559H80.4179C80.2835 16.1585 80.2163 16.2257 80.2163 16.3524Z" fill="#002B76"/>
<path d="M82.7078 14.1244V16.3859C82.7078 16.5254 82.7853 16.5952 82.943 16.5952H83.111L83.1833 17.0268C83.0774 17.0837 82.912 17.1095 82.6871 17.1095C82.5036 17.1095 82.3563 17.0604 82.2503 16.9596C82.1444 16.8614 82.0901 16.7193 82.0901 16.5384V14.1218H82.7078V14.1244Z" fill="#002B76"/>
<path d="M84.0801 14.1244V16.3859C84.0801 16.5254 84.1576 16.5952 84.3153 16.5952H84.4833L84.5557 17.0268C84.4497 17.0837 84.2843 17.1095 84.0594 17.1095C83.8759 17.1095 83.7286 17.0604 83.6226 16.9596C83.5167 16.8614 83.4624 16.7193 83.4624 16.5384V14.1218H84.0801V14.1244Z" fill="#002B76"/>
<path d="M87.1635 16.3033H86.1684L85.9591 17.0631H85.3052L86.14 14.3365C86.1503 14.2873 86.1788 14.246 86.2201 14.215C86.2615 14.184 86.3106 14.1685 86.3622 14.1685H86.967C87.0885 14.1685 87.1609 14.2253 87.1893 14.3365L88.0241 17.0631H87.3728L87.1635 16.3033ZM87.0265 15.8071L86.7835 14.9231C86.7499 14.7836 86.7293 14.6931 86.7241 14.6518H86.6104C86.6052 14.6802 86.5949 14.7241 86.5819 14.7862C86.569 14.8482 86.5561 14.8947 86.5483 14.9257L86.3054 15.8096H87.0265V15.8071Z" fill="#002B76"/>
<path d="M89.978 16.5695L90.0323 16.9726C89.8204 17.0657 89.5516 17.1122 89.2311 17.1122C88.8512 17.1122 88.5824 17.0295 88.4273 16.8667C88.2722 16.7039 88.1947 16.4221 88.1947 16.0267C88.1947 15.6313 88.2722 15.3444 88.4299 15.1816C88.5876 15.0187 88.8563 14.936 89.2389 14.936C89.5516 14.936 89.8075 14.98 90.0013 15.0653L89.9341 15.4504C89.6317 15.4452 89.4353 15.4426 89.3422 15.4426C89.151 15.4426 89.0218 15.484 88.9494 15.5641C88.877 15.6442 88.8434 15.7993 88.8434 16.0267C88.8434 16.2541 88.8796 16.4066 88.9494 16.4893C89.0218 16.5695 89.151 16.6108 89.3422 16.6108C89.5852 16.6108 89.7971 16.5979 89.9755 16.572L89.978 16.5695Z" fill="#002B76"/>
<path d="M90.4639 15.4555L90.4045 15.0368C90.7767 14.9696 91.1359 14.936 91.4822 14.936C91.7614 14.936 91.9681 14.9929 92.0999 15.1066C92.2318 15.2203 92.2964 15.4168 92.2964 15.6959V17.0631H91.8053L91.7433 16.7478C91.5365 16.9907 91.2806 17.1122 90.9808 17.1122C90.7818 17.1122 90.619 17.0605 90.4949 16.9546C90.3683 16.8486 90.3063 16.7039 90.3063 16.5152V16.3058C90.3063 16.1404 90.3631 16.0112 90.4743 15.9207C90.5854 15.8277 90.7405 15.7812 90.9395 15.7812H91.6787V15.6881C91.6761 15.5822 91.6502 15.5098 91.6063 15.4736C91.5598 15.4374 91.4719 15.4193 91.3401 15.4193C91.1101 15.4193 90.8206 15.4297 90.4665 15.4529L90.4639 15.4555ZM90.9188 16.3524V16.4325C90.9188 16.5746 90.9989 16.647 91.1618 16.647C91.3246 16.647 91.5003 16.5798 91.6787 16.4454V16.1559H91.1204C90.986 16.1585 90.9188 16.2257 90.9188 16.3524Z" fill="#002B76"/>
<path d="M94.7697 14.1245V17.0605H94.2787L94.2296 16.7582C94.0306 16.9933 93.7669 17.1096 93.4413 17.1096C93.1828 17.1096 92.9967 17.0166 92.8804 16.8305C92.7641 16.6444 92.7073 16.3705 92.7073 16.0061C92.7073 15.608 92.7719 15.3315 92.9011 15.1712C93.0303 15.011 93.2293 14.9335 93.5007 14.9335C93.7721 14.9335 93.9892 14.9955 94.1727 15.117C94.1598 14.9619 94.152 14.8198 94.152 14.6854V14.1245H94.7723H94.7697ZM94.1494 16.4325V15.4762C93.9608 15.4219 93.816 15.3961 93.7101 15.3961C93.5705 15.3961 93.4749 15.4349 93.4232 15.5124C93.3715 15.5899 93.3457 15.7554 93.3457 16.0035C93.3457 16.2516 93.3715 16.3989 93.4206 16.479C93.4697 16.5591 93.5602 16.5979 93.6894 16.5979C93.7773 16.5979 93.8496 16.585 93.9117 16.5617C93.9737 16.5385 94.0538 16.4945 94.152 16.4299L94.1494 16.4325Z" fill="#002B76"/>
<path d="M96.597 16.2361H95.8501C95.8707 16.386 95.9147 16.4893 95.9871 16.541C96.0594 16.5927 96.1757 16.6186 96.3411 16.6186C96.5608 16.6186 96.8193 16.6031 97.1139 16.572L97.1734 16.9571C96.9588 17.0605 96.6564 17.1122 96.2714 17.1122C95.8863 17.1122 95.6045 17.0295 95.4417 16.8615C95.2763 16.6935 95.1936 16.417 95.1936 16.0319C95.1936 15.6261 95.2737 15.3418 95.434 15.179C95.5942 15.0162 95.8656 14.936 96.2455 14.936C96.5893 14.936 96.8374 14.9955 96.9924 15.1144C97.1449 15.2333 97.225 15.4142 97.2276 15.6571C97.2276 15.851 97.1785 15.9957 97.0777 16.0913C96.9795 16.1869 96.8193 16.2361 96.597 16.2361ZM95.8397 15.8613H96.4264C96.5014 15.8613 96.5531 15.8432 96.5789 15.807C96.6048 15.7708 96.6177 15.7166 96.6177 15.6468C96.6177 15.5486 96.5918 15.4814 96.5427 15.4426C96.4936 15.4038 96.4006 15.3857 96.2662 15.3857C96.1059 15.3857 95.9974 15.4168 95.938 15.4814C95.8785 15.5434 95.8449 15.67 95.8372 15.8613H95.8397Z" fill="#002B76"/>
<path d="M98.1245 14.9928L98.1659 15.2952C98.4295 15.0548 98.6906 14.9333 98.9542 14.9333C99.2333 14.9333 99.4116 15.0445 99.4866 15.2693C99.7295 15.0445 99.9828 14.9333 100.241 14.9333C100.43 14.9333 100.572 14.9825 100.67 15.0807C100.769 15.1789 100.818 15.321 100.818 15.5097V17.063H100.2V15.7035C100.2 15.6131 100.184 15.5511 100.153 15.5149C100.122 15.4787 100.066 15.4606 99.9802 15.4606C99.913 15.4606 99.8484 15.4735 99.7864 15.4994C99.7244 15.5252 99.6365 15.5743 99.5176 15.6467V17.0656H98.9232V15.7061C98.9232 15.6157 98.9051 15.5536 98.8715 15.5175C98.8353 15.4813 98.781 15.4632 98.7009 15.4632C98.5923 15.4632 98.4399 15.5226 98.2434 15.6441V17.0656H97.6257V14.998H98.122L98.1245 14.9928Z" fill="#002B76"/>
<path d="M103.381 14.9929L102.647 17.0916C102.609 17.2027 102.56 17.3061 102.503 17.4017C102.446 17.4973 102.371 17.5878 102.283 17.6757C102.193 17.7635 102.081 17.8282 101.95 17.8695C101.818 17.9109 101.67 17.9238 101.508 17.9031L101.459 17.5387C101.627 17.4948 101.758 17.4353 101.854 17.3655C101.95 17.2932 102.022 17.1975 102.076 17.0786L102.084 17.0605H101.968C101.864 17.0605 101.797 17.0114 101.766 16.9106L101.092 14.9929H101.753L102.138 16.3317C102.164 16.4299 102.185 16.5333 102.2 16.6419H102.255C102.262 16.6083 102.278 16.5566 102.296 16.4842C102.317 16.4118 102.33 16.3627 102.337 16.3317L102.72 14.9929H103.381Z" fill="#002B76"/>
<path d="M37.6515 11.8345H37.0235V11.5399H34.5656V11.8345H33.9375V9.20864C33.7282 9.30685 33.5111 9.40506 33.2836 9.49811L32.9451 8.94243C33.8807 8.64004 34.5475 8.30663 34.9481 7.9448H33.1053V7.34002H35.465V6.94458C34.9171 6.97043 34.3304 6.98852 33.7153 6.98852L33.524 6.42768C35.1755 6.42768 36.5815 6.32171 37.7265 6.12012L38.0211 6.62669C37.4654 6.75074 36.8245 6.8412 36.093 6.90323V7.34002H38.4346V7.9448H36.5557C37.3388 8.26528 38.0288 8.61678 38.6207 8.99154L38.2149 9.49035C38.0289 9.35596 37.8453 9.22414 37.6541 9.10784V11.8319L37.6515 11.8345ZM34.2632 9.04323H35.465V8.0947C35.1755 8.44103 34.7749 8.75376 34.2632 9.04323ZM37.0235 10.9739V9.61182H34.5656V10.0305H36.7107V10.5733H34.5656V10.9739H37.0235ZM36.093 9.04323H37.5481C37.1113 8.77702 36.6229 8.52632 36.093 8.29113V9.04323Z" fill="#002B76"/>
<path d="M43.6476 8.62458L43.2031 9.07429C42.9627 8.78999 42.6242 8.4876 42.1874 8.16712L42.6371 7.73033C43.0377 8.02497 43.3763 8.32736 43.6476 8.62458ZM43.6373 9.8083C43.415 10.5294 43.1695 11.2065 42.8904 11.8372L42.2442 11.5529C42.5518 10.9119 42.8232 10.2528 43.0584 9.57569L43.6373 9.81088V9.8083ZM43.8389 7.1514L43.3892 7.59594C43.1307 7.30647 42.7663 6.99116 42.2985 6.66034L42.7482 6.22355C43.1798 6.53111 43.5443 6.84642 43.8389 7.15398V7.1514ZM44.7099 6.74563V6.15894H45.3379V6.74563H46.1831V6.15894H46.8059V6.74563H47.5141V7.33231H46.8059V7.88024H47.7131V8.47209H46.8447C47.0902 8.8055 47.4547 9.06912 47.9225 9.26813L47.6511 9.82381C47.3668 9.67649 47.1264 9.51625 46.9248 9.34308V10.519H45.0562V10.9377C45.0562 11.0721 45.1363 11.1419 45.3017 11.1419H46.8421C46.9403 11.1368 47.0075 11.0928 47.0463 11.0179C47.0722 10.9636 47.1006 10.7956 47.1316 10.519L47.7415 10.7155C47.7054 11.023 47.6563 11.2453 47.6071 11.3823C47.5322 11.6046 47.3487 11.7157 47.0592 11.7286H45.0433C44.6298 11.7286 44.4282 11.5503 44.4282 11.1936V9.56535C44.255 9.7075 44.0715 9.8419 43.8673 9.96596L43.5339 9.43096C44.0638 9.14149 44.4411 8.82101 44.6685 8.47468H43.8182V7.88282H44.7125V7.3349H44.0586V6.74821H44.7125L44.7099 6.74563ZM46.5578 8.98125C46.4234 8.82101 46.3045 8.64784 46.2063 8.46951H45.2811C45.1958 8.64784 45.095 8.82101 44.9735 8.98125H46.5578ZM46.3175 9.97371V9.51108H45.0536V9.97371H46.3175ZM46.1805 7.88024V7.33231H45.3353V7.88024H46.1805Z" fill="#002B76"/>
<path d="M53.9418 7.19022V6.94985H51.5641V6.45621H53.9418V6.1228H54.5828V6.45621H56.9606V6.94985H54.5828V7.19022H56.4514V9.05884H56.3661C56.6013 9.31729 56.7797 9.55248 56.9089 9.75408L56.4824 10.0435C56.4152 9.93758 56.3403 9.8342 56.2602 9.72306L55.8053 9.74115V10.1288H57.0252V10.6535H55.8053V11.2634C55.8053 11.633 55.5959 11.8243 55.1824 11.8243H54.5156L54.3864 11.2454C54.5957 11.2712 54.7921 11.2815 54.9782 11.2815C55.1023 11.2815 55.1695 11.2195 55.1695 11.1084V10.6535H53.1923C53.4818 10.8396 53.7273 11.0231 53.9393 11.2092L53.5025 11.6537C53.2931 11.4133 52.9907 11.1601 52.603 10.8887L52.8434 10.6535H51.5072V10.1288H55.1747V9.77217C54.1072 9.8161 53.0062 9.85229 51.8716 9.88847L51.7476 9.3819C52.4945 9.36898 53.2259 9.35089 53.947 9.3328V9.05625H52.0784V7.18763H53.947L53.9418 7.19022ZM53.9418 7.89063V7.61925H52.6961V7.89063H53.9418ZM53.9418 8.31707H52.6961V8.58845H53.9418V8.31707ZM54.5828 7.89063H55.8285V7.61925H54.5828V7.89063ZM55.826 8.31707H54.5802V8.58845H55.826V8.31707ZM55.8027 9.15446L55.9629 9.05625H54.5828V9.3147L55.8957 9.2656L55.8027 9.15446Z" fill="#002B76"/>
<path d="M63.2178 6.1459V7.04531H63.6985V6.1459H64.2904V7.04531H64.8952L64.5928 6.8308C64.7789 6.64471 64.9313 6.41727 65.0606 6.15882L65.5361 6.38626C65.4121 6.63179 65.2647 6.85406 65.1045 7.04531H66.128V7.59323H64.7918L64.5824 8.0998H65.9936V8.64256H63.8252V8.94495H65.8773V9.47478H63.8252V9.76941H66.1926V10.3122H64.448C64.8667 10.6688 65.4844 10.9531 66.296 11.1625L66.0246 11.7285C65.014 11.3822 64.28 10.9325 63.8252 10.3923V11.8215H63.1971V10.4104C62.7707 10.9169 62.0573 11.3537 61.052 11.7285L60.7134 11.1728C61.5947 10.9144 62.2227 10.6249 62.5923 10.3096H60.8297V9.76683H63.1971V9.47219H61.145V8.94236H63.1971V8.63997H61.0158V8.09722H62.3778L62.1194 7.59065H60.8917V7.04273H61.817C61.7058 6.78428 61.5818 6.55684 61.4603 6.36558L61.9462 6.1614C62.1064 6.38884 62.2408 6.6292 62.352 6.88766L62.0005 7.04273H62.6285V6.14331H63.2204L63.2178 6.1459ZM64.1586 7.59582H62.7422L62.9955 8.10239H63.957L64.1611 7.59582H64.1586Z" fill="#002B76"/>
<path d="M70.0565 11.7855L69.9143 11.1626C70.0875 11.1884 70.2477 11.1988 70.395 11.1988C70.5553 11.1988 70.6354 11.1367 70.6354 11.0256V9.76951C70.4493 9.83671 70.2606 9.90391 70.0745 9.96594L69.9143 9.31205C70.1547 9.26295 70.395 9.19575 70.6354 9.11563V7.86988H70.0435V7.24701H70.6354V6.15633H71.2634V7.24701H71.7442V7.86988H71.2634V8.86751C71.4288 8.79256 71.5968 8.70727 71.7622 8.62198V9.28104C71.5968 9.36116 71.4288 9.44128 71.2634 9.51623V11.1858C71.2634 11.5813 71.0489 11.7829 70.6173 11.7829H70.0565V11.7855ZM72.7806 7.06609V6.14858H73.3905V9.18799C73.3776 10.4156 73.0157 11.3151 72.305 11.8811L71.8062 11.4365C72.1267 11.2013 72.367 10.9015 72.5273 10.5294C72.2817 10.5836 71.9845 10.6405 71.6408 10.6948L71.5477 10.0978C72.0026 10.0616 72.3929 10.0125 72.7056 9.93751C72.7495 9.70232 72.7728 9.45162 72.7806 9.18541V9.07428H72.0052V8.49534H72.7806V7.64503H71.8811V7.06609H72.7806ZM74.5561 6.146V7.06351H75.5434V7.64244H74.5561V8.49275H75.3884V9.07169H74.5561V9.96594H75.5848V10.5449H74.5561V11.8397H73.941V6.146H74.5561Z" fill="#002B76"/>
<path d="M81.2061 6.49232V7.08935H80.5522V8.34544H81.0769V8.95022H80.5522V9.96077C80.7745 9.86773 80.989 9.76951 81.2061 9.65838V10.2813C80.5962 10.5836 79.9423 10.8421 79.2522 11.0514L79.0868 10.4105C79.3582 10.3562 79.6295 10.2864 79.9009 10.2011V8.95022H79.2651V8.34544H79.9009V7.08935H79.2057V6.49232H81.2087H81.2061ZM82.426 10.0797C82.0874 10.5242 81.6687 10.9248 81.1622 11.2685L80.896 10.6715C81.4258 10.364 81.8884 9.98662 82.2709 9.54466L82.426 10.0797ZM82.3407 9.1544L81.8962 9.46196C81.7308 9.14664 81.5085 8.79515 81.2242 8.41522L81.7178 8.09991C81.9841 8.50051 82.1934 8.852 82.3407 9.1544ZM82.5501 7.13846V6.146H83.1729V7.13846H83.9612C83.801 6.95237 83.5968 6.7637 83.3513 6.56469L83.7157 6.21319C84.0233 6.44063 84.2765 6.66807 84.4807 6.8981L84.2455 7.13846H84.597V7.75358H83.1729V8.20846C83.2531 8.46691 83.3513 8.72019 83.4624 8.95539C83.6976 8.67884 83.907 8.37645 84.1034 8.04305L84.5841 8.39971C84.3076 8.83133 84.0233 9.19575 83.739 9.49039C84.0413 10.0021 84.4109 10.4518 84.8477 10.8395L84.4161 11.3513C83.8992 10.8343 83.4805 10.2296 83.1704 9.53949V11.757H82.5475V7.75099H81.2397V7.13587H82.5475L82.5501 7.13846Z" fill="#002B76"/>
<path d="M92.9399 9.30169V9.76949C92.5444 9.9349 92.1025 10.1029 91.6088 10.2631V10.3381H93.9582V10.855H91.6088V11.2685C91.6088 11.6252 91.4124 11.8113 91.0222 11.8113H90.314L90.1718 11.2944C90.376 11.3073 90.5983 11.3125 90.8387 11.3125C90.9627 11.3125 91.0299 11.2323 91.0299 11.0773V10.855H88.5281V10.3381H91.0299V10.0486C91.3943 9.93748 91.6967 9.84444 91.9422 9.77207H89.4844V9.30427H92.9425L92.9399 9.30169ZM89.5024 7.84143H90.3398V8.27821H89.5386L89.5645 8.56768H92.9037L92.9218 8.27821H92.1335V7.84143H92.9528L92.9709 7.57005H92.1438V7.13843H92.9993L93.0252 6.83087H92.0818V6.3243H93.6222L93.48 8.56768H93.8987V9.62734H93.2836V9.03548H89.1923V9.62217H88.5772V8.56768H88.9778L88.8227 6.43544C89.2543 6.39926 89.7092 6.30621 90.1796 6.16406L90.3838 6.64996C90.1873 6.71715 89.8669 6.78435 89.4275 6.8593L89.4533 7.13585H90.3217V7.56747H89.4844L89.5024 7.83884V7.84143ZM91.247 6.57759C91.3633 6.47162 91.4744 6.36307 91.5727 6.23901L91.9242 6.46128C91.813 6.59568 91.7096 6.71974 91.5985 6.81795C91.7329 6.91616 91.857 7.00921 91.9681 7.10225L91.7148 7.3607L92.0043 7.55196C91.8802 7.69411 91.7639 7.81817 91.6476 7.92672C91.782 8.02493 91.9138 8.11797 92.0301 8.21618L91.7277 8.51857C91.6037 8.40744 91.4615 8.2963 91.309 8.18517C91.1436 8.28338 90.9446 8.39452 90.7172 8.51082L90.482 8.12831C90.6422 8.0792 90.7895 8.01201 90.9265 7.93189C90.8102 7.85693 90.6862 7.78457 90.5569 7.70961L90.8516 7.41498C90.9989 7.50027 91.1462 7.59331 91.2884 7.68118C91.3995 7.58297 91.5106 7.47701 91.6088 7.3607C91.5029 7.26249 91.3943 7.16945 91.2703 7.08416C91.0971 7.19529 90.8878 7.31935 90.6422 7.44858L90.407 7.06607C90.5802 7.00404 90.7404 6.93167 90.9007 6.83087C90.7766 6.74558 90.6422 6.66546 90.5001 6.58534L90.7895 6.30104C90.9498 6.39409 91.0971 6.48713 91.2444 6.57759H91.247Z" fill="#002B76"/>
<path d="M98.5199 7.26253V6.14601H99.166V7.26253H99.7398V7.88541H99.166V8.31185C99.3521 8.50311 99.5356 8.71246 99.7217 8.93473C100.047 8.55222 100.332 8.10251 100.572 7.59852L101.107 7.86473C100.921 8.25241 100.724 8.60391 100.502 8.92439L100.934 8.79516C101.001 9.25004 101.179 9.6584 101.477 10.0228C101.712 9.6584 101.872 9.23453 101.957 8.75381L102.531 8.87011C102.327 8.5548 102.094 8.22398 101.823 7.87765L102.322 7.57009C102.777 8.12577 103.136 8.61166 103.381 9.03035L102.846 9.39477C102.761 9.23453 102.66 9.07429 102.557 8.90888C102.441 9.524 102.236 10.0564 101.947 10.4854C102.329 10.793 102.802 11.0592 103.384 11.2737L103.058 11.8604C102.454 11.6201 101.95 11.3254 101.554 10.9791C101.135 11.4107 100.593 11.7131 99.9388 11.8914L99.5744 11.3125C100.197 11.1523 100.701 10.8861 101.091 10.5061C100.745 10.0874 100.518 9.60671 100.407 9.06395C100.301 9.19835 100.202 9.33016 100.104 9.43871L99.944 9.32758L99.6364 9.79021C99.4632 9.44388 99.303 9.15441 99.1686 8.9218V11.8242H98.5225V9.03811C98.3441 9.53176 98.1219 9.98663 97.8634 10.4053L97.5791 9.70233C97.9978 9.1725 98.3002 8.56772 98.4966 7.89057H97.7574V7.2677H98.5225L98.5199 7.26253ZM101.236 6.86193C101.138 6.62157 101.032 6.3993 100.916 6.19512L101.57 6.08398C101.676 6.31142 101.779 6.56988 101.885 6.85935H103.211V7.48739H99.8457V6.85935H101.239L101.236 6.86193Z" fill="#002B76"/>
</g>
<defs>
<clipPath id="clip0_163_664">
<rect width="103.381" height="24" fill="white"/>
</clipPath>
</defs>
</svg>
